<?xml version="1.0" standalone="no"?>
<!DOCTYPE svg PUBLIC "-//W3C//DTD SVG 20010904//EN"
 "http://www.w3.org/TR/2001/REC-SVG-20010904/DTD/svg10.dtd">
<svg version="1.0" xmlns="http://www.w3.org/2000/svg"
 width="512.000000pt" height="512.000000pt" viewBox="0 0 512.000000 512.000000"
 preserveAspectRatio="xMidYMid meet">
<metadata>
Created by potrace 1.14, written by Peter Selinger 2001-2017
</metadata>
<g transform="translate(0.000000,512.000000) scale(0.100000,-0.100000)"
fill="#000000" stroke="none">
<path d="M2379 5116 c-2 -2 -35 -6 -74 -9 -73 -7 -217 -30 -295 -47 -25 -6
-54 -12 -65 -15 -155 -31 -447 -148 -650 -260 -59 -32 -205 -128 -240 -157 -5
-5 -35 -27 -65 -49 -50 -37 -141 -115 -230 -201 -96 -90 -269 -305 -362 -448
-138 -211 -291 -577 -333 -795 -53 -277 -59 -334 -60 -560 0 -209 7 -297 34
-455 83 -471 305 -925 622 -1273 81 -89 98 -106 159 -162 101 -91 135 -120
160 -138 14 -10 43 -31 65 -48 247 -184 563 -336 864 -415 111 -29 297 -62
401 -72 149 -14 547 -6 602 12 7 3 31 7 53 10 22 3 76 12 120 21 44 10 91 19
105 22 51 9 318 103 395 138 159 73 343 176 430 240 97 71 227 176 270 216 28
26 59 56 70 66 24 21 141 148 170 184 124 154 218 296 295 442 75 143 151 319
176 407 59 212 82 308 90 385 3 22 7 46 10 54 25 71 25 549 0 701 -58 359
-136 590 -299 890 -235 433 -633 817 -1082 1042 -257 129 -545 220 -805 254
-30 3 -66 9 -80 11 -33 5 -446 14 -451 9z m451 -460 c19 -4 73 -14 118 -22
103 -18 312 -78 369 -104 24 -11 46 -20 50 -20 19 0 222 -109 370 -197 l161
-98 -1496 -1497 -1495 -1497 -72 117 c-126 206 -171 290 -227 422 -30 71 -80
221 -93 280 -30 131 -43 201 -52 280 -10 85 -10 419 0 490 4 30 10 73 13 95 9
66 43 204 73 300 121 379 350 717 666 981 236 198 519 342 825 420 58 15 114
28 125 30 11 1 40 6 65 10 25 4 68 10 95 14 57 9 452 5 505 -4z m1477 -906 c4
-8 23 -42 44 -76 157 -258 247 -501 295 -794 4 -19 8 -46 11 -60 2 -14 6 -119
8 -235 3 -209 -10 -355 -45 -495 -7 -25 -13 -52 -15 -60 -15 -74 -112 -334
-150 -405 -12 -22 -35 -65 -52 -95 -144 -265 -418 -561 -673 -726 -25 -16 -47
-31 -50 -34 -12 -12 -93 -55 -208 -111 -197 -97 -458 -174 -662 -196 -136 -15
-561 -6 -591 12 -4 3 -24 7 -45 11 -213 32 -490 140 -741 290 -17 10 -73 44
-123 74 l-91 54 1498 1496 1498 1496 42 -65 c24 -36 46 -73 50 -81z"/>
<path d="M2492 4085 l-81 -86 20 -20 c60 -60 79 -181 40 -258 -47 -91 -121
-133 -245 -138 -44 -2 -80 -4 -82 -6 -1 -1 -4 -38 -5 -82 -3 -111 -26 -168
-89 -220 -60 -49 -93 -57 -261 -60 -114 -3 -145 -7 -185 -25 -117 -51 -187
-172 -176 -302 l3 -38 115 0 c111 0 114 1 115 23 4 105 5 106 156 108 142 2
195 11 281 50 66 30 192 143 211 190 44 107 61 144 68 145 45 5 150 64 205
117 169 160 190 428 49 617 -58 78 -48 80 -139 -15z"/>
<path d="M1839 4076 c-2 -2 -19 -6 -38 -9 -112 -18 -261 -112 -344 -219 -34
-43 -85 -143 -103 -199 l-17 -57 -61 -16 c-133 -36 -267 -134 -338 -246 -74
-116 -95 -219 -89 -437 l1 -43 115 0 115 0 0 94 c0 218 52 316 207 389 55 25
80 30 157 33 50 2 98 3 106 3 12 1 15 14 13 63 -1 35 3 85 8 112 30 159 159
284 313 302 48 6 56 10 57 28 1 28 1 178 0 194 -1 11 -91 19 -102 8z"/>
<path d="M999 2576 c-60 -21 -96 -53 -122 -108 -24 -50 -25 -56 -25 -322 -1
-333 6 -361 107 -429 36 -25 52 -29 121 -30 l79 -2 124 123 c68 67 119 123
113 123 -6 1 -51 2 -101 3 l-90 1 -3 201 -2 201 305 0 306 0 26 24 c28 26 75
73 168 168 l59 61 -514 0 c-395 -1 -523 -4 -551 -14z"/>
<path d="M2990 2465 l-125 -125 125 -1 c69 -1 133 -1 143 0 9 1 18 -1 18 -6 1
-4 2 -96 3 -203 l1 -195 -343 0 c-189 0 -348 -3 -354 -6 -16 -10 -238 -232
-238 -239 0 -3 431 -5 958 -5 881 1 960 2 989 18 47 25 92 77 104 120 6 25 9
151 7 342 l-3 303 -31 39 c-16 21 -50 48 -74 61 -44 22 -45 22 -550 22 l-505
0 -125 -125z m1035 -330 l0 -200 -345 0 -345 0 -1 201 -2 201 347 -1 346 -1 0
-200z"/>
</g>
</svg>
